<?xml version="1.0" encoding="utf-8"?><svg viewBox="0 0 288 288" xmlns="http://www.w3.org/2000/svg" xmlns:xlink="http://www.w3.org/1999/xlink"><style>:root>svg{display:none}:root>svg:target{display:block}</style><svg viewBox="0 0 32 32" id="burger-menu" xmlns="http://www.w3.org/2000/svg"><path d="M0 2h32v4H0zm0 6h32v4H0zm0 6h32v4H0zm0 6h32v4H0zm0 6h32v4H0z"/></svg><svg viewBox="0 0 288 288" id="github" xmlns="http://www.w3.org/2000/svg"><svg viewBox="0 0 16 16" width="288" height="288"><path d="M7.999 0C3.582 0 0 3.596 0 8.032a8.031 8.031 0 0 0 5.472 7.621c.4.074.546-.174.546-.387 0-.191-.007-.696-.011-1.366-2.225.485-2.695-1.077-2.695-1.077-.363-.928-.888-1.175-.888-1.175-.727-.498.054-.488.054-.488.803.057 1.225.828 1.225.828.714 1.227 1.873.873 2.329.667.072-.519.279-.873.508-1.074-1.776-.203-3.644-.892-3.644-3.969 0-.877.312-1.594.824-2.156-.083-.203-.357-1.02.078-2.125 0 0 .672-.216 2.2.823a7.633 7.633 0 0 1 2.003-.27 7.65 7.65 0 0 1 2.003.271c1.527-1.039 2.198-.823 2.198-.823.436 1.106.162 1.922.08 2.125.513.562.822 1.279.822 2.156 0 3.085-1.87 3.764-3.652 3.963.287.248.543.738.543 1.487 0 1.074-.01 1.94-.01 2.203 0 .215.144.465.55.386A8.032 8.032 0 0 0 16 8.032C16 3.596 12.418 0 7.999 0z" class="bcolor000 bsvgShape"/></svg></svg><svg viewBox="0 0 288 288" id="moon" xmlns="http://www.w3.org/2000/svg"><svg data-name="Layer 1" viewBox="0 0 64 64" width="288" height="288"><path d="M30.89 57.93a26.44 26.44 0 0 1-17.75-6.87h1.71a28.23 28.23 0 0 0 22.68-45 26.36 26.36 0 0 1-6.64 51.86z" class="ccolor003166 csvgShape"/><path d="M23.79 14.32a.75.75 0 0 0 .52-.38l1.75-3.17 1.74 3.17a.75.75 0 0 0 .52.38l3.55.68-2.47 2.64a.72.72 0 0 0-.2.61l.45 3.58-3.27-1.53a.72.72 0 0 0-.64 0l-3.28 1.53.45-3.58a.74.74 0 0 0-.19-.61L20.24 15zM8.26 29.05l.29-2.32a.74.74 0 0 0-.2-.61l-1.59-1.7L9.05 24a.78.78 0 0 0 .52-.38l1.12-2 1.13 2a.74.74 0 0 0 .51.38l2.29.43L13 26.12a.77.77 0 0 0-.2.61l.29 2.32-2.11-1a.77.77 0 0 0-.64 0zm19.44 6.21a.75.75 0 0 0-.19.61l.29 2.31-2.11-1a.74.74 0 0 0-.32-.07.71.71 0 0 0-.32.07l-2.11 1 .29-2.31a.76.76 0 0 0-.2-.61l-1.6-1.7 2.29-.44a.76.76 0 0 0 .52-.37l1.13-2.05 1.12 2.05a.76.76 0 0 0 .52.37l2.29.44z" class="ccolor003166 csvgShape"/></svg></svg><svg viewBox="0 0 32 32" id="phone" xmlns="http://www.w3.org/2000/svg"><path d="M23.45 20.93a3 3 0 0 0-4.25 0l-1.45 1.45a26.14 26.14 0 0 1-4.51-3.62 26.62 26.62 0 0 1-3.62-4.51l1.45-1.45a3 3 0 0 0 0-4.25L8.24 5.73a2.93 2.93 0 0 0-2.11-.88A3 3 0 0 0 4 5.73L2.64 7.08A6.37 6.37 0 0 0 1 12.33c.32 3.75 2.78 8.26 6.57 12.06s8.35 6.25 12.1 6.61a7.87 7.87 0 0 0 .84 0 6.07 6.07 0 0 0 4.41-1.64L26.27 28a3 3 0 0 0 .88-2.13 2.93 2.93 0 0 0-.88-2.11zm1.41 5.66-1.36 1.35a4.57 4.57 0 0 1-3.66 1c-3.25-.28-7.39-2.58-10.81-6S3.31 15.41 3 12.16A4.53 4.53 0 0 1 4 8.5l1.41-1.36a1 1 0 0 1 .71-.29 1 1 0 0 1 .71.29L9.66 10a1 1 0 0 1 0 1.41l-2 2a1 1 0 0 0-.16 1.21 27.49 27.49 0 0 0 4.33 5.58 27.49 27.49 0 0 0 5.58 4.33 1 1 0 0 0 1.21-.16l2-2a1 1 0 0 1 1.41 0l2.83 2.83a1 1 0 0 1 .29.71 1 1 0 0 1-.29.68zm1.74-21.2A14.92 14.92 0 0 0 16 1a1 1 0 1 0 0 2 13 13 0 0 1 13 13.11 1 1 0 0 0 1 1 1 1 0 0 0 1-1 14.91 14.91 0 0 0-4.4-10.72z"/><path d="M20.91 11.11a6 6 0 0 1 1.77 4.31 1 1 0 0 0 1 1 1 1 0 0 0 1-1 8 8 0 0 0-8-8.1 1 1 0 1 0 0 2 6 6 0 0 1 4.23 1.79z"/></svg><svg viewBox="0 0 101 101" id="sun" xmlns="http://www.w3.org/2000/svg"><path d="M50.5 34C41.4 34 34 41.4 34 50.5S41.4 67 50.5 67 67 59.6 67 50.5 59.6 34 50.5 34zm0 28.2c-6.4 0-11.7-5.2-11.7-11.7S44 38.8 50.5 38.8 62.2 44 62.2 50.5s-5.3 11.7-11.7 11.7zm0-33.4c1.3 0 2.4-1.1 2.4-2.4v-7.6c0-1.3-1.1-2.4-2.4-2.4s-2.4 1.1-2.4 2.4v7.6c0 1.3 1.1 2.4 2.4 2.4zm0 43.4c-1.3 0-2.4 1.1-2.4 2.4v7.6c0 1.3 1.1 2.4 2.4 2.4s2.4-1.1 2.4-2.4v-7.6c0-1.3-1.1-2.4-2.4-2.4zm17-36.3c.6 0 1.2-.2 1.7-.7l5.4-5.4c.9-.9.9-2.5 0-3.4s-2.5-.9-3.4 0l-5.4 5.4c-.9.9-.9 2.5 0 3.4.5.4 1.1.7 1.7.7zM31.8 65.8l-5.4 5.4c-.9.9-.9 2.5 0 3.4.5.5 1.1.7 1.7.7.6 0 1.2-.2 1.7-.7l5.4-5.4c.9-.9.9-2.5 0-3.4s-2.5-.9-3.4 0zm50.4-17.7h-7.6c-1.3 0-2.4 1.1-2.4 2.4s1.1 2.4 2.4 2.4h7.6c1.3 0 2.4-1.1 2.4-2.4s-1.1-2.4-2.4-2.4zm-53.4 2.4c0-1.3-1.1-2.4-2.4-2.4h-7.6c-1.3 0-2.4 1.1-2.4 2.4s1.1 2.4 2.4 2.4h7.6c1.3 0 2.4-1.1 2.4-2.4zm40.4 15.3c-.9-.9-2.5-.9-3.4 0s-.9 2.5 0 3.4l5.4 5.4c.5.5 1.1.7 1.7.7.6 0 1.2-.2 1.7-.7.9-.9.9-2.5 0-3.4l-5.4-5.4zM31.8 35.2c.5.5 1.1.7 1.7.7s1.2-.2 1.7-.7c.9-.9.9-2.5 0-3.4l-5.4-5.4c-.9-.9-2.5-.9-3.4 0s-.9 2.5 0 3.4l5.4 5.4z"/></svg><svg viewBox="0 0 24 24" id="telegram" xmlns="http://www.w3.org/2000/svg"><path d="M12 24c6.629 0 12-5.371 12-12S18.629 0 12 0 0 5.371 0 12s5.371 12 12 12zM5.491 11.74l11.57-4.461c.537-.194 1.006.131.832.943l.001-.001-1.97 9.281c-.146.658-.537.818-1.084.508l-3-2.211-1.447 1.394c-.16.16-.295.295-.605.295l.213-3.053 5.56-5.023c.242-.213-.054-.333-.373-.121l-6.871 4.326-2.962-.924c-.643-.204-.657-.643.136-.953z"/></svg></svg>